# xmcd CD database file
#
# Track frame offsets:
#	150
#	14404
#	27600
#	41155
#	55553
#	70259
#	82646
#	95866
#	110854
#	124312
#	137959
#	152158
#	165870
#	179430
#	193165
#	207641
#	223508
#	238692
#
# Disc length: 3377 seconds
#
# Revision: 2
# Processed by: cddbd v1.5PL3 Copyright (c) Steve Scherf et al.
# Submitted via: CDex 1.51
#
DISCID=0c0d2f12
DTITLE=Various Artist - Original Masters of the Saxophone
DYEAR=1900
DGENRE=Jazz
TTITLE0=April in Paris-Coleman Hawkins
TTITLE1=Lester Leaps In-Lester Young
TTITLE2=If I Had You- Dexter Gordon
TTITLE3=Cotton Tail-Ben Webster
TTITLE4=Out of Nowhere-Don Byas
TTITLE5=Chasin' The Bird-Charlie Parker
TTITLE6=All the Things you Are-Coleman Hawkins
TTITLE7=She's Funny That Way-Lester Young
TTITLE8=Daydream-Johnny Hodges
TTITLE9=Three O'Clock in the Morning-Don Byas
TTITLE10=Perdido-Ben Webster
TTITLE11=Dexterity-Charlie Parker
TTITLE12=Long Tail Dexter-Dexter Gordon
TTITLE13=Embraceable You-Don Byas
TTITLE14=Bird of Paradise-Charlie Parker
TTITLE15=All Too soon-Ben Webster
TTITLE16=I Don't Stand A Ghost of a Chance-Lester Young
TTITLE17=Picasso-Coleman Hawkins
EXTD=
EXTT0=
EXTT1=
EXTT2=
EXTT3=
EXTT4=
EXTT5=
EXTT6=
EXTT7=
EXTT8=
EXTT9=
EXTT10=
EXTT11=
EXTT12=
EXTT13=
EXTT14=
EXTT15=
EXTT16=
EXTT17=
PLAYORDER=
